<?xml version="1.0" encoding="utf-8"?>
<!-- Generator: Adobe Illustrator 15.1.0, SVG Export Plug-In . SVG Version: 6.00 Build 0)  -->
<!DOCTYPE svg PUBLIC "-//W3C//DTD SVG 1.1//EN" "http://www.w3.org/Graphics/SVG/1.1/DTD/svg11.dtd">
<svg version="1.1" id="Layer_1" xmlns="http://www.w3.org/2000/svg" xmlns:xlink="http://www.w3.org/1999/xlink" x="0px" y="0px"
	 width="100px" height="72px" viewBox="0 0 100 72" enable-background="new 0 0 100 72" xml:space="preserve">
<path d="M87,52v6h-4c-5.343,0-9.452-4.109-12.172-6.828L58.484,38.828l-5.656,5.656l12.344,12.344C68.377,60.034,74.343,66,83,66h4
	v6l7.8-6l5.2-4l-5.2-4L87,52z"/>
<path d="M29.172,20.828l12.344,12.344l5.656-5.656L34.828,15.172C31.623,11.966,25.657,6,17,6H0v8h17
	C22.343,14,26.452,18.109,29.172,20.828z"/>
<path d="M87,14v6l7.8-6l5.2-4l-5.2-4L87,0v6h-4c-8.657,0-14.623,5.966-17.828,9.172l-36,36C26.452,53.891,22.343,58,17,58H0v8h17
	c8.657,0,14.623-5.966,17.828-9.172l36-36C73.548,18.109,77.657,14,83,14H87z"/>
</svg>
